<svg version="1.1" id="Layer_1" xmlns="http://www.w3.org/2000/svg" xmlns:xlink="http://www.w3.org/1999/xlink" x="0px" y="0px"
	 width="100%" viewBox="0 0 1024 1024" enable-background="new 0 0 1024 1024" xml:space="preserve">
<path fill="#000000" opacity="1.000000" stroke="none" 
	d="
M590.000000,1025.000000 
	C456.976685,1025.000000 323.953339,1025.000000 190.505676,1024.703613 
	C189.191589,1017.994019 185.982788,1012.840149 181.200989,1008.671753 
	C174.192001,1002.561890 169.009491,995.633301 168.563568,985.795959 
	C168.433899,982.935303 167.098999,979.914917 165.628326,977.364624 
	C157.027252,962.449707 152.132263,946.218506 148.485153,929.569153 
	C146.556778,920.765991 142.081772,913.376709 135.990616,907.177002 
	C132.276535,903.396790 129.338989,898.181641 123.328865,897.132507 
	C105.801270,894.072876 97.401093,882.318054 93.717834,866.061951 
	C91.356003,855.638062 90.215492,845.024719 89.022964,834.433777 
	C88.446480,829.314026 88.266853,824.022827 89.615829,819.006348 
	C95.197823,798.248230 97.275284,777.171326 97.092171,755.685791 
	C96.963776,740.620605 103.759407,733.502014 118.476952,730.775513 
	C119.951439,730.502380 121.430702,730.252136 122.912598,730.022461 
	C127.891411,729.251099 131.916656,726.964905 135.228638,723.076965 
	C144.308395,712.418335 148.086563,699.527832 150.838425,686.256775 
	C152.669586,677.425964 152.681839,668.376831 153.201157,659.393860 
	C154.344650,639.613708 163.917679,622.831604 172.898438,605.972839 
	C178.664185,595.149353 181.132660,583.912476 180.323746,571.848877 
	C179.627029,561.458374 175.849899,551.724976 173.495285,541.691162 
	C171.575180,533.508911 171.499481,525.587158 174.471573,517.640503 
	C178.341492,507.293243 185.518478,500.093658 195.016861,494.760986 
	C200.349564,491.767029 205.741364,488.786682 209.738831,483.824921 
	C221.683426,468.998688 222.871674,452.227753 218.457962,434.657349 
	C215.920731,424.556915 210.669724,420.662842 200.623093,419.969299 
	C197.130051,419.728149 194.202057,418.351013 191.647110,416.054077 
	C187.198441,412.054779 184.243851,407.077362 182.317001,401.478180 
	C175.075150,380.434601 174.242447,359.059937 179.189743,337.423889 
	C183.211746,319.834442 183.788727,302.137054 181.272949,284.283813 
	C179.617203,272.533630 179.480713,260.697998 179.915588,248.859161 
	C180.218033,240.625824 181.786880,232.643600 185.182327,225.087845 
	C191.762390,210.445389 202.280472,203.990707 216.251404,206.496857 
	C221.398483,207.420151 226.404495,207.765015 231.608368,207.244583 
	C239.351974,206.470184 240.388794,206.374435 241.269547,198.719315 
	C242.592453,187.221115 245.597244,176.271133 249.237396,165.346207 
	C253.705719,151.935776 257.013794,138.088608 261.531097,124.764717 
	C267.506287,107.140808 270.241516,88.860870 275.249481,71.093559 
	C279.631439,55.547028 287.413635,42.727970 303.051086,36.174641 
	C308.291718,33.978413 313.373779,31.493532 318.089233,28.313601 
	C324.185486,24.202528 330.699188,20.414015 328.598633,11.134456 
	C328.144592,9.128637 328.850830,6.841612 329.122070,4.696698 
	C329.303772,3.259806 328.884521,2.077115 328.000000,1.000000 
	C459.356659,1.000000 590.713318,1.000000 722.355835,1.239522 
	C722.964600,10.132304 723.563477,18.674202 731.499084,24.389755 
	C736.903870,28.282545 742.540405,31.900848 747.640198,36.160446 
	C759.182190,45.800930 767.853821,58.161785 777.943420,69.180519 
	C794.728271,87.510948 811.546814,105.780373 831.565552,120.630096 
	C841.141296,127.733368 850.187439,135.361832 857.700439,144.473572 
	C865.696228,154.170975 874.973999,162.493164 883.778320,171.331985 
	C886.133606,173.696533 888.592834,175.982376 890.226135,178.928497 
	C901.292419,198.890045 914.120728,217.814651 924.702209,238.072525 
	C934.262756,256.375824 944.116394,274.535065 955.435242,291.846649 
	C959.173157,297.563568 961.257019,298.331543 967.285156,295.492157 
	C969.884949,294.267670 972.086243,294.530731 974.252808,296.232941 
	C976.774902,298.214355 979.015686,300.466095 980.182190,303.510376 
	C982.804932,310.354980 985.343567,317.166779 985.284912,324.738129 
	C985.226929,332.222046 985.311340,339.772583 986.239380,347.180389 
	C987.182556,354.709106 986.245972,361.850311 983.762329,368.793457 
	C980.371460,378.273102 980.083252,387.947418 980.414917,397.856354 
	C980.774414,408.594574 984.158813,418.864563 984.812073,429.480255 
	C985.793518,445.427429 986.082886,461.408905 989.391052,477.139465 
	C990.487244,482.351959 989.381531,487.488800 986.817749,492.119354 
	C985.375366,494.724518 983.279236,496.427399 980.778076,492.813965 
	C979.625366,491.148560 978.187256,489.457855 975.922546,489.898010 
	C973.237488,490.419830 973.185242,493.022491 972.752869,495.054413 
	C970.802795,504.218628 971.014648,513.618469 969.890686,522.861206 
	C968.165833,537.045105 965.202271,550.796387 953.238464,560.661072 
	C949.957031,563.366699 946.780334,566.693481 944.829773,570.404846 
	C941.792175,576.184387 937.261108,580.459167 932.766541,584.831482 
	C925.021851,592.365356 915.651306,598.936890 912.082703,609.442261 
	C907.676086,622.414917 898.727051,632.122681 890.139465,641.726196 
	C880.765991,652.208435 873.554382,664.126465 864.979309,675.091003 
	C859.199524,682.481262 853.227539,689.443115 846.231995,695.581543 
	C837.983948,702.819031 829.524109,709.817200 821.339844,717.124817 
	C810.671875,726.650208 799.708191,735.780212 788.291809,744.412415 
	C779.990417,750.689392 770.757935,755.230164 761.677734,760.060181 
	C750.184387,766.173889 739.814880,773.717224 732.726013,784.672363 
	C723.513855,798.908752 714.072510,813.163147 706.671326,828.355530 
	C700.003845,842.041870 690.302551,852.608887 678.778564,861.533203 
	C668.412720,869.560730 662.996765,880.527649 657.299072,891.520691 
	C653.092957,899.635986 650.804871,908.778809 645.250793,916.145386 
	C638.976807,924.466797 633.680298,933.312988 630.176575,943.037598 
	C625.351318,956.430359 619.490479,969.229919 611.266663,980.861938 
	C608.868408,984.254150 608.005310,987.658875 609.143982,991.661011 
	C611.145813,998.697510 608.236145,1003.979065 602.945312,1008.325500 
	C600.115723,1010.649963 596.988159,1012.676086 594.463684,1015.289551 
	C591.938721,1017.903564 588.794250,1020.541260 590.000000,1025.000000 
M381.031494,500.221954 
	C379.945526,507.504547 380.255402,514.856689 380.068420,522.174377 
	C379.403473,548.199280 384.161316,573.192932 395.338593,596.776123 
	C405.364868,617.930725 419.013763,636.249207 439.293793,648.646790 
	C452.221863,656.549988 465.733887,663.461060 479.630096,669.575623 
	C504.189850,680.382385 529.583557,687.884583 556.529358,689.540710 
	C584.050171,691.232239 608.709106,682.479126 631.965881,668.868652 
	C662.219177,651.163452 685.736694,626.085022 707.875610,599.406982 
	C723.311279,580.806641 737.048401,561.331360 744.808533,538.183472 
	C756.673096,502.792572 753.139038,469.668274 730.222839,439.389191 
	C719.661560,425.434601 706.530701,414.199890 692.823975,403.524506 
	C678.627991,392.468079 662.845642,383.578308 649.208862,371.794037 
	C635.940674,360.328278 622.122375,349.642548 607.020630,340.716736 
	C574.565247,321.534149 540.250000,312.423279 502.331421,320.263275 
	C460.048248,329.005707 428.390503,350.955322 408.979889,390.340820 
	C391.986237,424.822205 383.175812,461.124084 381.031494,500.221954 
M374.447632,685.278381 
	C371.451935,685.374023 368.384949,685.084900 365.471558,685.624756 
	C335.902283,691.104309 314.867706,707.918274 302.617157,735.064209 
	C293.959747,754.248108 288.831360,774.549316 287.026672,795.679565 
	C285.793457,810.118652 286.269470,824.371643 290.530060,838.182007 
	C297.210510,859.835938 311.259064,876.104675 330.239746,887.868225 
	C365.461151,909.697021 402.038605,914.502136 439.577332,893.898193 
	C462.981293,881.052490 481.217163,862.486938 495.454498,839.997192 
	C502.965637,828.132446 507.771210,815.183167 508.533600,801.116150 
	C509.471466,783.811401 503.680695,768.301392 492.185028,755.732239 
	C467.792694,729.062134 439.342255,707.527954 406.334381,692.459167 
	C396.609741,688.019592 386.196564,685.569946 374.447632,685.278381 
M526.190613,272.679047 
	C548.275330,250.972168 557.550537,224.572357 554.836365,193.885498 
	C552.786621,170.710617 544.117981,150.408218 527.885376,133.541336 
	C495.688934,100.086845 444.699280,101.847542 415.183838,137.410294 
	C385.045990,173.722992 386.346558,228.848358 418.210449,265.692841 
	C446.703003,298.639038 493.052673,301.855408 526.190613,272.679047 
M602.174011,281.323120 
	C621.388977,302.263977 647.415283,305.452820 671.142395,289.773376 
	C696.946777,272.721222 709.231567,236.404938 699.087158,207.163132 
	C690.946777,183.698090 671.055359,168.761307 648.108276,169.491653 
	C633.139465,169.968094 620.612183,176.429825 609.766846,186.610733 
	C584.004761,210.794540 580.239075,254.092194 602.174011,281.323120 
M803.036621,289.429108 
	C801.939758,287.006805 800.982971,284.508972 799.723755,282.174164 
	C790.143188,264.409210 769.392334,254.189392 750.696594,257.960175 
	C717.544922,264.646637 695.992554,296.332550 701.255066,330.648376 
	C706.306824,363.590118 738.772888,381.232056 769.272949,367.970459 
	C794.947083,356.807251 814.350586,322.384491 803.036621,289.429108 
M777.864197,406.354279 
	C771.880554,415.918793 768.970886,426.256104 769.316406,437.618835 
	C770.108032,463.650055 795.384949,480.080475 819.285400,469.948029 
	C841.301453,460.614441 853.756165,432.246368 845.732727,409.708801 
	C840.097961,393.880737 826.408813,384.840057 809.817932,386.166443 
	C795.977112,387.273010 786.085815,394.876129 777.864197,406.354279 
z"/>
</svg>