<svg version="1.1" id="Layer_1" xmlns="http://www.w3.org/2000/svg" xmlns:xlink="http://www.w3.org/1999/xlink" x="0px" y="0px"
	 width="100%" viewBox="0 0 2000 2000" enable-background="new 0 0 2000 2000" xml:space="preserve">
<path fill="#FFFFFF" opacity="1.000000" stroke="none" 
	d="
M2001.000000,779.000000 
	C2001.000000,1186.666626 2001.000000,1593.833374 2001.000000,2001.000000 
	C1334.333374,2001.000000 667.666687,2001.000000 1.000000,2001.000000 
	C1.000000,1334.333374 1.000000,667.666687 1.000000,1.000000 
	C667.666687,1.000000 1334.333374,1.000000 2001.000000,1.000000 
	C2001.000000,260.166656 2001.000000,519.333313 2001.000000,779.000000 
M496.234344,1937.259888 
	C507.907623,1941.067139 519.492493,1945.176514 531.270935,1948.624512 
	C564.904907,1958.470215 599.024353,1965.651733 634.246826,1966.444702 
	C641.401428,1966.605713 648.579468,1966.857178 655.690857,1967.600586 
	C677.713379,1969.902710 699.658997,1973.122559 721.724792,1974.792236 
	C776.780579,1978.958618 831.832397,1980.150635 886.921509,1974.165894 
	C914.883423,1971.128174 943.001770,1969.027710 971.105347,1967.912231 
	C1015.368286,1966.155273 1059.673828,1965.269531 1103.970215,1964.638672 
	C1128.939331,1964.282837 1153.927246,1965.469849 1178.904785,1965.391968 
	C1193.045166,1965.347778 1207.339844,1965.242065 1221.284302,1963.223999 
	C1243.800049,1959.965698 1266.370239,1956.234741 1288.397217,1950.651245 
	C1319.111694,1942.865723 1349.913330,1934.750977 1379.655762,1923.960083 
	C1424.949707,1907.526855 1462.168945,1877.900269 1497.371460,1845.739746 
	C1533.651978,1812.594238 1569.557251,1779.028198 1606.262695,1746.360718 
	C1635.069336,1720.723145 1668.192383,1700.958374 1700.373657,1679.940796 
	C1719.159302,1667.671753 1738.226807,1655.567749 1755.600708,1641.459839 
	C1790.697388,1612.960693 1818.248779,1577.143188 1847.106934,1542.707520 
	C1854.667358,1533.685669 1861.048218,1523.643188 1867.633789,1513.842896 
	C1887.978882,1483.567749 1906.270996,1452.215698 1918.406128,1417.569702 
	C1928.397339,1389.044800 1932.505615,1359.595703 1934.668213,1329.571777 
	C1937.792358,1286.192749 1935.881714,1243.437500 1924.156616,1201.327637 
	C1914.713989,1167.414795 1904.983521,1133.555786 1896.714844,1099.350342 
	C1889.877686,1071.066528 1884.376465,1042.420532 1885.657715,1012.950989 
	C1886.147461,1001.684143 1883.481201,990.841370 1878.473999,980.629089 
	C1877.708252,979.067261 1877.311279,977.150452 1877.333496,975.405273 
	C1877.454224,965.917114 1875.367798,956.949829 1871.596436,948.287903 
	C1870.827881,946.523132 1870.250977,944.479492 1870.304321,942.584717 
	C1870.604492,931.925964 1870.851440,921.253479 1871.626587,910.622864 
	C1873.213013,888.864197 1875.612427,867.155579 1876.795166,845.378479 
	C1879.026611,804.286499 1881.307251,763.175842 1882.244019,722.042847 
	C1882.788940,698.121948 1881.386353,674.097900 1879.683472,650.204224 
	C1878.457764,633.006531 1873.117310,616.538879 1864.388672,601.572632 
	C1844.210205,566.974060 1824.915039,531.790161 1800.755859,499.693787 
	C1789.678345,484.976807 1781.690063,469.042328 1777.848999,450.954681 
	C1775.076904,437.901184 1770.865112,425.304260 1763.340576,414.065491 
	C1740.640381,380.159760 1715.548950,348.311310 1683.539062,322.556091 
	C1664.486572,307.226440 1645.321655,292.045135 1622.465454,282.402252 
	C1607.083496,275.912628 1592.710327,267.483490 1579.658936,257.078979 
	C1551.794556,234.865540 1524.332886,212.145233 1496.379639,190.045624 
	C1474.058716,172.398911 1452.031250,154.210892 1428.476440,138.336151 
	C1395.989258,116.441368 1358.087158,106.513573 1321.092529,95.445183 
	C1303.901978,90.301926 1285.366211,89.796478 1267.559937,86.534492 
	C1244.026367,82.223305 1220.590576,77.367271 1197.150269,72.561897 
	C1178.783081,68.796516 1160.602173,66.740562 1143.048828,75.890266 
	C1142.072998,76.398911 1140.785156,76.626366 1139.682983,76.528511 
	C1113.827515,74.232895 1088.646729,70.118187 1066.380249,54.989368 
	C1056.983398,48.604881 1046.623779,43.169922 1036.004028,39.144283 
	C1008.892944,28.867186 980.267334,25.185986 951.619934,22.148323 
	C915.277405,18.294706 878.777161,17.943577 842.284546,18.118309 
	C833.173462,18.161936 823.760681,18.473652 815.019958,20.729216 
	C788.816406,27.491116 762.911499,35.401543 736.825439,42.630417 
	C700.127502,52.800018 666.151978,69.630867 631.747375,85.382538 
	C593.002380,103.121422 559.771729,128.130646 533.290771,161.735855 
	C522.056763,175.992249 508.892456,188.037735 493.727814,198.047668 
	C448.477997,227.916321 403.239502,257.804657 358.217865,288.015076 
	C342.345398,298.665833 325.882507,308.951324 312.010834,321.892212 
	C302.423065,330.836670 292.085815,337.422058 280.883484,343.392303 
	C278.245331,344.798340 275.675720,346.336823 273.106506,347.867920 
	C237.575729,369.042480 207.950058,396.213135 187.613220,432.666687 
	C167.798523,468.184296 160.368103,506.685242 161.009750,546.955505 
	C161.386520,570.602905 162.509781,594.238281 162.905365,617.885620 
	C163.190704,634.942444 159.542480,651.254456 151.560684,666.440186 
	C144.683273,679.524841 137.880432,692.656250 130.659729,705.551453 
	C113.607864,736.003906 97.282074,766.795044 85.404823,799.718323 
	C78.007324,820.223999 70.909126,840.922363 69.107613,862.780212 
	C65.860962,902.171936 65.238098,941.648315 67.166321,981.150024 
	C68.355476,1005.511230 71.009789,1029.569458 80.260757,1052.458130 
	C87.476921,1070.312378 94.353531,1088.304565 101.644600,1106.127686 
	C113.262581,1134.527954 123.599670,1163.415283 126.230026,1194.138184 
	C128.258804,1217.834351 128.276901,1241.719360 128.739838,1265.529175 
	C129.384171,1298.669922 128.968430,1331.843262 130.217422,1364.956909 
	C131.203964,1391.112671 134.910278,1417.162842 145.342392,1441.424683 
	C151.527863,1455.809937 156.534790,1470.446411 160.824768,1485.426025 
	C163.973114,1496.419189 166.300110,1507.807007 170.837799,1518.214722 
	C188.359344,1558.402100 211.519211,1595.204590 240.633591,1628.028320 
	C263.834503,1654.185181 281.368256,1683.651611 295.623749,1715.443481 
	C302.597107,1730.995117 310.493439,1746.366211 319.884674,1760.552856 
	C341.459839,1793.144897 363.801971,1825.252319 386.625916,1856.985962 
	C401.187744,1877.232056 419.253967,1894.324951 439.505524,1908.997314 
	C456.635559,1921.408325 475.995148,1929.358643 496.234344,1937.259888 
z"/>
<path fill="#000000" opacity="1.000000" stroke="none" 
	d="
M495.863922,1937.147949 
	C475.995148,1929.358643 456.635559,1921.408325 439.505524,1908.997314 
	C419.253967,1894.324951 401.187744,1877.232056 386.625916,1856.985962 
	C363.801971,1825.252319 341.459839,1793.144897 319.884674,1760.552856 
	C310.493439,1746.366211 302.597107,1730.995117 295.623749,1715.443481 
	C281.368256,1683.651611 263.834503,1654.185181 240.633591,1628.028320 
	C211.519211,1595.204590 188.359344,1558.402100 170.837799,1518.214722 
	C166.300110,1507.807007 163.973114,1496.419189 160.824768,1485.426025 
	C156.534790,1470.446411 151.527863,1455.809937 145.342392,1441.424683 
	C134.910278,1417.162842 131.203964,1391.112671 130.217422,1364.956909 
	C128.968430,1331.843262 129.384171,1298.669922 128.739838,1265.529175 
	C128.276901,1241.719360 128.258804,1217.834351 126.230026,1194.138184 
	C123.599670,1163.415283 113.262581,1134.527954 101.644600,1106.127686 
	C94.353531,1088.304565 87.476921,1070.312378 80.260757,1052.458130 
	C71.009789,1029.569458 68.355476,1005.511230 67.166321,981.150024 
	C65.238098,941.648315 65.860962,902.171936 69.107613,862.780212 
	C70.909126,840.922363 78.007324,820.223999 85.404823,799.718323 
	C97.282074,766.795044 113.607864,736.003906 130.659729,705.551453 
	C137.880432,692.656250 144.683273,679.524841 151.560684,666.440186 
	C159.542480,651.254456 163.190704,634.942444 162.905365,617.885620 
	C162.509781,594.238281 161.386520,570.602905 161.009750,546.955505 
	C160.368103,506.685242 167.798523,468.184296 187.613220,432.666687 
	C207.950058,396.213135 237.575729,369.042480 273.106506,347.867920 
	C275.675720,346.336823 278.245331,344.798340 280.883484,343.392303 
	C292.085815,337.422058 302.423065,330.836670 312.010834,321.892212 
	C325.882507,308.951324 342.345398,298.665833 358.217865,288.015076 
	C403.239502,257.804657 448.477997,227.916321 493.727814,198.047668 
	C508.892456,188.037735 522.056763,175.992249 533.290771,161.735855 
	C559.771729,128.130646 593.002380,103.121422 631.747375,85.382538 
	C666.151978,69.630867 700.127502,52.800018 736.825439,42.630417 
	C762.911499,35.401543 788.816406,27.491116 815.019958,20.729216 
	C823.760681,18.473652 833.173462,18.161936 842.284546,18.118309 
	C878.777161,17.943577 915.277405,18.294706 951.619934,22.148323 
	C980.267334,25.185986 1008.892944,28.867186 1036.004028,39.144283 
	C1046.623779,43.169922 1056.983398,48.604881 1066.380249,54.989368 
	C1088.646729,70.118187 1113.827515,74.232895 1139.682983,76.528511 
	C1140.785156,76.626366 1142.072998,76.398911 1143.048828,75.890266 
	C1160.602173,66.740562 1178.783081,68.796516 1197.150269,72.561897 
	C1220.590576,77.367271 1244.026367,82.223305 1267.559937,86.534492 
	C1285.366211,89.796478 1303.901978,90.301926 1321.092529,95.445183 
	C1358.087158,106.513573 1395.989258,116.441368 1428.476440,138.336151 
	C1452.031250,154.210892 1474.058716,172.398911 1496.379639,190.045624 
	C1524.332886,212.145233 1551.794556,234.865540 1579.658936,257.078979 
	C1592.710327,267.483490 1607.083496,275.912628 1622.465454,282.402252 
	C1645.321655,292.045135 1664.486572,307.226440 1683.539062,322.556091 
	C1715.548950,348.311310 1740.640381,380.159760 1763.340576,414.065491 
	C1770.865112,425.304260 1775.076904,437.901184 1777.848999,450.954681 
	C1781.690063,469.042328 1789.678345,484.976807 1800.755859,499.693787 
	C1824.915039,531.790161 1844.210205,566.974060 1864.388672,601.572632 
	C1873.117310,616.538879 1878.457764,633.006531 1879.683472,650.204224 
	C1881.386353,674.097900 1882.788940,698.121948 1882.244019,722.042847 
	C1881.307251,763.175842 1879.026611,804.286499 1876.795166,845.378479 
	C1875.612427,867.155579 1873.213013,888.864197 1871.626587,910.622864 
	C1870.851440,921.253479 1870.604492,931.925964 1870.304321,942.584717 
	C1870.250977,944.479492 1870.827881,946.523132 1871.596436,948.287903 
	C1875.367798,956.949829 1877.454224,965.917114 1877.333496,975.405273 
	C1877.311279,977.150452 1877.708252,979.067261 1878.473999,980.629089 
	C1883.481201,990.841370 1886.147461,1001.684143 1885.657715,1012.950989 
	C1884.376465,1042.420532 1889.877686,1071.066528 1896.714844,1099.350342 
	C1904.983521,1133.555786 1914.713989,1167.414795 1924.156616,1201.327637 
	C1935.881714,1243.437500 1937.792358,1286.192749 1934.668213,1329.571777 
	C1932.505615,1359.595703 1928.397339,1389.044800 1918.406128,1417.569702 
	C1906.270996,1452.215698 1887.978882,1483.567749 1867.633789,1513.842896 
	C1861.048218,1523.643188 1854.667358,1533.685669 1847.106934,1542.707520 
	C1818.248779,1577.143188 1790.697388,1612.960693 1755.600708,1641.459839 
	C1738.226807,1655.567749 1719.159302,1667.671753 1700.373657,1679.940796 
	C1668.192383,1700.958374 1635.069336,1720.723145 1606.262695,1746.360718 
	C1569.557251,1779.028198 1533.651978,1812.594238 1497.371460,1845.739746 
	C1462.168945,1877.900269 1424.949707,1907.526855 1379.655762,1923.960083 
	C1349.913330,1934.750977 1319.111694,1942.865723 1288.397217,1950.651245 
	C1266.370239,1956.234741 1243.800049,1959.965698 1221.284302,1963.223999 
	C1207.339844,1965.242065 1193.045166,1965.347778 1178.904785,1965.391968 
	C1153.927246,1965.469849 1128.939331,1964.282837 1103.970215,1964.638672 
	C1059.673828,1965.269531 1015.368286,1966.155273 971.105347,1967.912231 
	C943.001770,1969.027710 914.883423,1971.128174 886.921509,1974.165894 
	C831.832397,1980.150635 776.780579,1978.958618 721.724792,1974.792236 
	C699.658997,1973.122559 677.713379,1969.902710 655.690857,1967.600586 
	C648.579468,1966.857178 641.401428,1966.605713 634.246826,1966.444702 
	C599.024353,1965.651733 564.904907,1958.470215 531.270935,1948.624512 
	C519.492493,1945.176514 507.907623,1941.067139 495.863922,1937.147949 
M1246.368286,706.119934 
	C1221.607178,686.382324 1195.826660,668.150635 1167.713379,653.434204 
	C1115.520752,626.112854 1060.744019,611.739258 1001.336426,619.964783 
	C957.453430,626.040771 916.219238,639.303528 878.899414,663.653198 
	C864.767151,672.874084 851.156616,682.862305 840.277954,695.840942 
	C806.163696,736.540527 782.826172,783.075500 766.929626,833.517273 
	C755.037170,871.253479 747.396423,909.869629 743.934509,949.261902 
	C740.886353,983.946350 738.113586,1018.668274 740.906128,1053.536621 
	C744.123779,1093.713379 753.851135,1132.178955 771.517151,1168.481812 
	C789.730896,1205.910034 814.196289,1238.559692 848.830872,1262.139771 
	C865.921631,1273.775513 884.652405,1283.157349 903.168579,1292.515503 
	C959.808472,1321.142090 1018.596252,1343.114624 1082.837646,1346.239990 
	C1098.426025,1346.998535 1114.286743,1347.262939 1129.705322,1345.284180 
	C1156.545776,1341.839722 1181.974609,1332.790894 1206.433350,1321.209351 
	C1249.500122,1300.816528 1286.605713,1272.125732 1320.534302,1239.040283 
	C1352.215332,1208.146362 1380.361450,1174.141602 1407.353882,1139.197388 
	C1428.532349,1111.779907 1444.744873,1081.509277 1455.592896,1048.530151 
	C1467.550903,1012.176392 1471.737549,975.126343 1463.943604,937.312317 
	C1457.013550,903.689758 1441.152954,874.368164 1419.473022,848.060608 
	C1395.973022,819.544617 1367.510620,796.512695 1337.745483,775.000732 
	C1307.014771,752.790955 1274.720215,732.667175 1246.368286,706.119934 
M561.904785,1524.422852 
	C560.755554,1533.166870 559.287537,1541.883057 558.517151,1550.660278 
	C556.248779,1576.504150 556.587524,1602.310547 562.686035,1627.648804 
	C571.452759,1664.073242 591.925720,1693.286865 620.143372,1717.266113 
	C655.620239,1747.414062 697.149902,1764.419556 742.898621,1770.487061 
	C786.119873,1776.219604 825.930603,1764.201416 863.380005,1743.234619 
	C887.279114,1729.854248 907.661865,1711.984741 926.716431,1692.532349 
	C953.067566,1665.630859 975.064636,1635.856445 986.691711,1599.479980 
	C995.671509,1571.385986 996.556091,1543.299805 985.785034,1515.375244 
	C976.816162,1492.122559 962.815857,1472.076904 944.706299,1455.317627 
	C913.018982,1425.993286 878.563843,1400.055542 842.640747,1376.145020 
	C820.552246,1361.443115 796.885986,1349.729492 771.231262,1342.546997 
	C748.043640,1336.055054 724.617432,1333.421509 700.721130,1339.050537 
	C679.330322,1344.089478 660.050964,1353.470825 642.613281,1366.618408 
	C621.740234,1382.355957 603.912842,1401.177124 592.765991,1424.905640 
	C578.030884,1456.272705 567.916992,1489.321655 561.904785,1524.422852 
M1003.364502,236.094330 
	C963.790222,211.080627 921.557251,204.251907 876.895752,219.253479 
	C835.078674,233.299667 805.691833,262.159454 786.422363,301.091522 
	C764.098450,346.194855 760.473877,393.435913 773.764832,441.957703 
	C786.358826,487.935059 811.364563,525.094360 852.437988,550.193604 
	C890.464478,573.430908 931.182129,578.771301 973.677429,564.785706 
	C1011.405212,552.369141 1039.387817,527.447510 1059.021973,493.405090 
	C1086.702393,445.411713 1091.940430,394.291168 1077.402588,341.146942 
	C1065.485718,297.584534 1041.891602,261.947083 1003.364502,236.094330 
M1279.870605,329.484924 
	C1254.768188,326.699890 1231.644531,332.531921 1210.358154,345.807983 
	C1154.583740,380.593811 1130.046875,457.479370 1155.173462,518.393127 
	C1179.381836,577.080383 1240.273315,601.236267 1297.122314,573.919067 
	C1328.012573,559.075684 1349.000000,534.290955 1361.398071,502.601440 
	C1376.139893,464.921326 1377.489746,426.894531 1359.872314,389.737244 
	C1344.025513,356.314941 1317.972900,335.401581 1279.870605,329.484924 
M1438.388062,725.122864 
	C1465.222534,731.726746 1490.708740,727.260986 1513.577271,712.720215 
	C1560.212524,683.067566 1580.021118,639.657043 1573.764038,585.066162 
	C1570.651489,557.908813 1557.697510,535.210388 1535.493530,518.591309 
	C1498.271606,490.731567 1450.426270,495.765991 1415.233154,523.595886 
	C1379.395996,551.935059 1363.237305,589.841553 1366.069458,635.304626 
	C1368.797607,679.096741 1397.997925,715.425781 1438.388062,725.122864 
M1631.811890,894.301025 
	C1653.038086,868.057678 1661.926147,838.558716 1653.819946,805.274902 
	C1643.917114,764.614258 1603.761841,741.882507 1565.366455,754.543884 
	C1518.080688,770.137085 1489.271851,826.227539 1504.090942,873.846741 
	C1513.348145,903.593201 1537.365723,923.132202 1567.779785,924.169800 
	C1593.574341,925.049744 1614.290039,913.582947 1631.811890,894.301025 
z"/>
<path fill="#FFFFFF" opacity="1.000000" stroke="none" 
	d="
M1246.637939,706.352661 
	C1274.720215,732.667175 1307.014771,752.790955 1337.745483,775.000732 
	C1367.510620,796.512695 1395.973022,819.544617 1419.473022,848.060608 
	C1441.152954,874.368164 1457.013550,903.689758 1463.943604,937.312317 
	C1471.737549,975.126343 1467.550903,1012.176392 1455.592896,1048.530151 
	C1444.744873,1081.509277 1428.532349,1111.779907 1407.353882,1139.197388 
	C1380.361450,1174.141602 1352.215332,1208.146362 1320.534302,1239.040283 
	C1286.605713,1272.125732 1249.500122,1300.816528 1206.433350,1321.209351 
	C1181.974609,1332.790894 1156.545776,1341.839722 1129.705322,1345.284180 
	C1114.286743,1347.262939 1098.426025,1346.998535 1082.837646,1346.239990 
	C1018.596252,1343.114624 959.808472,1321.142090 903.168579,1292.515503 
	C884.652405,1283.157349 865.921631,1273.775513 848.830872,1262.139771 
	C814.196289,1238.559692 789.730896,1205.910034 771.517151,1168.481812 
	C753.851135,1132.178955 744.123779,1093.713379 740.906128,1053.536621 
	C738.113586,1018.668274 740.886353,983.946350 743.934509,949.261902 
	C747.396423,909.869629 755.037170,871.253479 766.929626,833.517273 
	C782.826172,783.075500 806.163696,736.540527 840.277954,695.840942 
	C851.156616,682.862305 864.767151,672.874084 878.899414,663.653198 
	C916.219238,639.303528 957.453430,626.040771 1001.336426,619.964783 
	C1060.744019,611.739258 1115.520752,626.112854 1167.713379,653.434204 
	C1195.826660,668.150635 1221.607178,686.382324 1246.637939,706.352661 
z"/>
<path fill="#FFFFFF" opacity="1.000000" stroke="none" 
	d="
M561.949219,1523.990723 
	C567.916992,1489.321655 578.030884,1456.272705 592.765991,1424.905640 
	C603.912842,1401.177124 621.740234,1382.355957 642.613281,1366.618408 
	C660.050964,1353.470825 679.330322,1344.089478 700.721130,1339.050537 
	C724.617432,1333.421509 748.043640,1336.055054 771.231262,1342.546997 
	C796.885986,1349.729492 820.552246,1361.443115 842.640747,1376.145020 
	C878.563843,1400.055542 913.018982,1425.993286 944.706299,1455.317627 
	C962.815857,1472.076904 976.816162,1492.122559 985.785034,1515.375244 
	C996.556091,1543.299805 995.671509,1571.385986 986.691711,1599.479980 
	C975.064636,1635.856445 953.067566,1665.630859 926.716431,1692.532349 
	C907.661865,1711.984741 887.279114,1729.854248 863.380005,1743.234619 
	C825.930603,1764.201416 786.119873,1776.219604 742.898621,1770.487061 
	C697.149902,1764.419556 655.620239,1747.414062 620.143372,1717.266113 
	C591.925720,1693.286865 571.452759,1664.073242 562.686035,1627.648804 
	C556.587524,1602.310547 556.248779,1576.504150 558.517151,1550.660278 
	C559.287537,1541.883057 560.755554,1533.166870 561.949219,1523.990723 
z"/>
<path fill="#FFFFFF" opacity="1.000000" stroke="none" 
	d="
M1003.659302,236.304962 
	C1041.891602,261.947083 1065.485718,297.584534 1077.402588,341.146942 
	C1091.940430,394.291168 1086.702393,445.411713 1059.021973,493.405090 
	C1039.387817,527.447510 1011.405212,552.369141 973.677429,564.785706 
	C931.182129,578.771301 890.464478,573.430908 852.437988,550.193604 
	C811.364563,525.094360 786.358826,487.935059 773.764832,441.957703 
	C760.473877,393.435913 764.098450,346.194855 786.422363,301.091522 
	C805.691833,262.159454 835.078674,233.299667 876.895752,219.253479 
	C921.557251,204.251907 963.790222,211.080627 1003.659302,236.304962 
z"/>
<path fill="#FFFFFF" opacity="1.000000" stroke="none" 
	d="
M1280.309570,329.580719 
	C1317.972900,335.401581 1344.025513,356.314941 1359.872314,389.737244 
	C1377.489746,426.894531 1376.139893,464.921326 1361.398071,502.601440 
	C1349.000000,534.290955 1328.012573,559.075684 1297.122314,573.919067 
	C1240.273315,601.236267 1179.381836,577.080383 1155.173462,518.393127 
	C1130.046875,457.479370 1154.583740,380.593811 1210.358154,345.807983 
	C1231.644531,332.531921 1254.768188,326.699890 1280.309570,329.580719 
z"/>
<path fill="#FEFEFE" opacity="1.000000" stroke="none" 
	d="
M1437.980957,725.051636 
	C1397.997925,715.425781 1368.797607,679.096741 1366.069458,635.304626 
	C1363.237305,589.841553 1379.395996,551.935059 1415.233154,523.595886 
	C1450.426270,495.765991 1498.271606,490.731567 1535.493530,518.591309 
	C1557.697510,535.210388 1570.651489,557.908813 1573.764038,585.066162 
	C1580.021118,639.657043 1560.212524,683.067566 1513.577271,712.720215 
	C1490.708740,727.260986 1465.222534,731.726746 1437.980957,725.051636 
z"/>
<path fill="#FEFEFE" opacity="1.000000" stroke="none" 
	d="
M1631.572510,894.562378 
	C1614.290039,913.582947 1593.574341,925.049744 1567.779785,924.169800 
	C1537.365723,923.132202 1513.348145,903.593201 1504.090942,873.846741 
	C1489.271851,826.227539 1518.080688,770.137085 1565.366455,754.543884 
	C1603.761841,741.882507 1643.917114,764.614258 1653.819946,805.274902 
	C1661.926147,838.558716 1653.038086,868.057678 1631.572510,894.562378 
z"/>
</svg>