<svg version="1.1" id="Layer_1" xmlns="http://www.w3.org/2000/svg" xmlns:xlink="http://www.w3.org/1999/xlink" x="0px" y="0px"
	 width="100%" viewBox="0 0 1024 1024" enable-background="new 0 0 1024 1024" xml:space="preserve">
<path fill="#000000" opacity="1.000000" stroke="none" 
	d="
M608.390076,109.576210 
	C635.236816,112.204758 661.414307,115.821007 686.026855,126.575760 
	C707.180603,135.819153 725.473083,149.406540 742.910950,164.237366 
	C749.155945,169.548660 755.710999,174.360474 762.731873,178.559128 
	C767.478088,181.397461 772.000916,184.489899 775.289185,189.065140 
	C776.737122,191.079865 779.055542,191.760895 781.123657,192.778656 
	C803.424927,203.753418 822.983398,218.111023 837.724670,238.452576 
	C845.227722,248.806061 850.517151,260.400421 854.836731,272.244476 
	C863.833435,296.912811 874.520508,320.656464 889.020508,342.605164 
	C897.682495,355.716827 901.656006,370.123199 902.554871,385.846832 
	C903.388367,400.426727 905.687378,414.911713 906.556519,429.540070 
	C907.730652,449.302734 906.208252,468.739990 901.977478,488.038879 
	C896.783630,511.730957 899.661560,534.988586 905.984497,558.045959 
	C910.776489,575.520752 918.902344,591.969910 921.676392,610.076721 
	C925.119385,632.550110 925.691833,655.145508 924.826294,677.791626 
	C924.286621,691.912109 923.280884,706.005920 921.473328,720.049622 
	C918.687683,741.692566 910.952881,761.157532 897.507812,778.416931 
	C877.610657,803.958862 856.652710,828.501648 832.038818,849.702637 
	C830.538696,850.994751 828.931152,852.204224 828.170044,854.191467 
	C824.891418,862.752502 818.717346,868.773438 810.601990,872.490234 
	C781.365417,885.880737 758.476013,907.425415 736.135193,929.739258 
	C726.950134,938.913208 718.293213,948.644104 707.578979,956.198486 
	C699.639587,961.796448 691.304016,966.583679 682.236633,970.092590 
	C651.591370,981.951538 620.328186,991.649841 587.802002,996.832336 
	C573.719116,999.076233 559.561462,998.619690 545.480225,996.848389 
	C517.019165,993.268188 488.468719,991.485840 459.796021,992.415833 
	C448.217957,992.791382 437.402893,997.283386 426.225006,999.809021 
	C405.371704,1004.520630 384.382782,1004.452271 363.174591,1003.662354 
	C341.768494,1002.864990 321.344299,998.277039 301.316315,991.195312 
	C295.178497,989.025085 289.074402,986.619019 283.609406,983.136353 
	C267.613922,972.942932 249.712143,966.013367 234.600204,954.316284 
	C231.513031,951.926575 227.939743,950.896973 223.834946,951.243896 
	C213.664780,952.103271 205.438309,948.267090 197.358124,941.914612 
	C191.500641,937.309570 185.454819,932.994446 180.196381,927.672058 
	C175.263718,922.679565 170.567001,917.459473 167.047852,911.368774 
	C157.161911,894.258789 142.149033,881.464111 129.585251,866.614197 
	C114.102997,848.314697 97.158409,831.161499 85.299438,810.051453 
	C72.272377,786.862122 65.348717,761.570007 59.579880,735.809143 
	C54.616730,713.646179 57.470852,691.426880 57.732559,669.196350 
	C57.942112,651.396118 58.372513,633.577637 55.039238,615.920410 
	C51.551231,597.443542 44.815704,580.078796 37.181881,563.055115 
	C27.167049,540.721680 22.902683,517.529175 24.507069,493.072632 
	C25.290579,481.129211 24.515646,469.017639 27.258202,457.296417 
	C30.989462,441.349670 40.450081,428.299164 50.129112,415.538788 
	C55.659908,408.247314 61.717155,401.345245 67.716003,394.422638 
	C71.028008,390.600616 73.327751,386.445679 75.184685,381.676453 
	C78.316887,373.631989 82.576561,366.031097 86.253593,358.192780 
	C89.525009,351.219086 92.554047,344.055603 91.641853,336.151550 
	C89.571098,318.208405 94.375198,301.183990 97.962769,283.944427 
	C103.018127,259.651611 117.388466,240.628738 133.050797,222.617554 
	C156.742416,195.372910 186.611252,176.478485 220.380814,164.690781 
	C237.888077,158.579666 250.660110,147.600464 262.264954,134.441345 
	C277.498779,117.167160 294.468262,102.675270 316.845795,95.431343 
	C328.142334,91.774483 339.693542,89.495171 351.381592,87.780663 
	C356.673767,87.004349 361.733002,86.183167 366.285095,82.847946 
	C370.978760,79.409012 376.832031,79.227936 382.453644,78.386604 
	C391.644043,77.011169 400.694366,74.512764 409.914490,73.563179 
	C427.768860,71.724373 445.608521,69.682365 463.546448,68.601044 
	C476.390625,67.826782 489.149292,67.810150 501.927856,69.319611 
	C514.771790,70.836807 526.658875,75.478279 537.296936,82.325188 
	C559.054443,96.328896 582.052673,106.544678 608.390076,109.576210 
M708.616211,501.858002 
	C706.953857,494.341858 704.333252,487.167389 700.927551,480.271851 
	C690.693359,459.550964 674.406860,444.244751 656.558228,430.235260 
	C640.049866,417.277771 621.664978,406.881592 606.034424,392.720520 
	C595.884155,383.524445 584.630859,375.731812 572.846008,368.771851 
	C550.469116,355.556488 526.860107,346.286560 500.349335,346.041809 
	C476.557251,345.822205 454.113800,351.063568 433.018433,361.960724 
	C418.797485,369.306763 406.366760,378.765106 396.870605,391.998688 
	C380.807098,414.384369 370.058441,439.111969 363.399506,465.691284 
	C358.167480,486.575165 356.020050,507.859985 354.694641,529.351013 
	C352.855957,559.165222 356.345825,587.842773 369.372589,614.932983 
	C378.695618,634.320984 391.300964,651.263123 409.713562,662.890015 
	C424.365814,672.142517 439.966064,679.762207 455.987762,686.446106 
	C476.079346,694.827759 496.832794,700.667053 518.574280,702.623657 
	C545.800110,705.073730 570.659668,697.692932 593.992920,684.190186 
	C619.414795,669.478882 640.483154,649.704529 659.353088,627.466064 
	C674.119812,610.063416 689.075684,592.769531 698.554626,571.621155 
	C708.431030,549.585938 713.650879,526.900208 708.616211,501.858002 
M272.744690,766.102173 
	C268.561768,779.324768 265.984314,792.836975 264.835999,806.674194 
	C263.693359,820.443420 264.449921,834.055054 268.988495,847.082886 
	C278.373566,874.022095 298.095764,891.070312 323.562378,902.232117 
	C352.621796,914.968567 381.392578,914.998718 409.583313,899.674500 
	C434.513214,886.122803 453.963898,866.797180 467.766571,842.087158 
	C475.450500,828.331177 479.460938,813.495911 476.716766,797.439392 
	C474.266968,783.105347 466.899933,771.444946 457.400208,760.846375 
	C449.664948,752.216370 440.275818,745.541870 431.266083,738.412964 
	C416.087280,726.402832 400.609894,714.887573 382.755188,706.962830 
	C371.499481,701.967102 359.796570,698.605957 347.536865,698.651489 
	C332.430725,698.707581 318.960327,704.259460 306.777008,713.123962 
	C288.790833,726.210571 278.714508,744.349670 272.744690,766.102173 
M416.763184,315.716217 
	C426.220367,320.341858 436.402802,322.653656 446.735687,322.363708 
	C470.503296,321.696777 489.813477,311.388397 503.993774,292.401306 
	C531.461975,255.622101 528.094482,203.119385 496.536194,169.741150 
	C467.622925,139.160522 421.527191,138.361023 392.315582,168.650101 
	C370.404480,191.369400 363.449951,219.278885 368.841766,249.874863 
	C373.974548,279.001129 389.093689,301.671600 416.763184,315.716217 
M553.344727,267.817841 
	C552.959900,278.457458 554.817627,288.633118 559.153687,298.414856 
	C570.962219,325.053406 600.296265,335.987701 626.332642,323.335571 
	C653.478088,310.144501 669.196594,276.697693 662.173645,246.807556 
	C657.406494,226.518631 646.032898,211.465530 625.523560,205.747971 
	C604.990479,200.023834 587.426636,207.212921 572.907715,221.989975 
	C560.739563,234.374496 555.123413,249.859344 553.344727,267.817841 
M688.844421,394.676575 
	C699.128113,399.253693 709.592102,399.759308 720.504089,396.907074 
	C743.349548,390.935486 766.244446,365.104950 762.825684,331.174347 
	C759.380005,296.976074 724.465820,277.870453 694.094666,294.012573 
	C675.016785,304.152405 665.064758,320.577972 661.901123,341.694366 
	C658.669373,363.265533 669.073914,384.524750 688.844421,394.676575 
M775.559143,411.886017 
	C771.767029,411.031250 767.966614,411.050659 764.174561,411.849243 
	C739.121399,417.125427 722.718933,443.451141 728.843628,468.539062 
	C734.409363,491.337646 757.395386,501.864563 778.081543,490.834900 
	C793.238770,482.753174 800.851501,469.507477 802.998108,452.751373 
	C805.510315,433.140900 792.970947,415.058105 775.559143,411.886017 
z"/>
</svg>