<!-- À enregistrer sous : static/images/topo-bg.svg -->
<svg width="1000" height="600" viewBox="0 0 1000 600" xmlns="http://www.w3.org/2000/svg">
  <g fill="none" stroke="#e2e8f0" stroke-width="0.5" stroke-opacity="0.6">
    <path d="M0 100 Q 250 50 500 150 T 1000 100" />
    <path d="M0 150 Q 250 100 500 200 T 1000 150" />
    <path d="M0 200 Q 250 150 500 250 T 1000 200" />
    <path d="M0 250 Q 250 200 500 300 T 1000 250" />
    <path d="M0 300 Q 250 250 500 350 T 1000 300" />
    <path d="M0 350 Q 250 300 500 400 T 1000 350" />
    <path d="M0 400 Q 250 350 500 450 T 1000 400" />
    <path d="M0 450 Q 250 400 500 550 T 1000 450" />
    <!-- Lignes de détails plus denses -->
    <path d="M100 0 Q 150 250 50 600" stroke-opacity="0.3"/>
    <path d="M200 0 Q 250 300 150 600" stroke-opacity="0.3"/>
    <path d="M800 0 Q 750 300 850 600" stroke-opacity="0.3"/>
  </g>
</svg>